<svg id="Capa_1" enable-background="new 0 0 512 512" height="512" viewBox="0 0 512 512" width="512" xmlns="http://www.w3.org/2000/svg"><g><g><path d="m355.05 221.777-42.61-42.61c-6.298-6.298-16.509-6.298-22.807 0l-23.161 23.161c-5.274 5.273-6.114 13.283-2.556 19.449z" fill="#fff3de"/><g><path d="m288.807 220.778c-1.908-5.63-.636-12.1 3.852-16.588l22.402-22.402-2.621-2.621c-6.298-6.298-16.509-6.298-22.807 0l-23.161 23.161c-4.992 4.992-6.011 12.438-3.089 18.449h25.424z" fill="#ffe5c2"/></g><g><path d="m194.13 221.777 25.973-96.931c.461-1.721-.56-3.489-2.281-3.95l-20.376-5.46c-1.721-.461-3.489.56-3.95 2.281l-27.883 104.061h28.517z" fill="#a44f3e"/></g><g><path d="m180.795 221.777 27.701-103.381-11.05-2.961c-1.721-.461-3.489.56-3.95 2.281l-27.883 104.061z" fill="#883f2e"/></g><path d="m407.142 221.777c3.558-6.166 2.718-14.176-2.556-19.449l-23.161-23.161c-6.298-6.298-16.509-6.298-22.807 0l-42.61 42.61z" fill="#fff3de"/><g><path d="m348.932 220.778 27.503-27.503c4.001-4.001 9.579-5.45 14.731-4.368l-9.74-9.74c-6.298-6.298-16.509-6.298-22.807 0l-41.611 41.611z" fill="#ffe5c2"/></g><path d="m129.147 221.777 6.591-6.591c6.298-6.298 6.298-16.509 0-22.807l-23.161-23.161c-6.298-6.298-16.509-6.298-22.807 0l-44.977 44.977c-2.169 2.169-3.572 4.805-4.247 7.582z" fill="#fff3de"/><path d="m65.429 221.777c.675-2.777 2.078-5.413 4.247-7.582l43.939-43.939-1.038-1.038c-6.298-6.298-16.509-6.298-22.807 0l-44.977 44.977c-2.169 2.169-3.572 4.805-4.247 7.582z" fill="#ffe5c2"/><path d="m200.107 221.777v-16.749c0-8.907-7.22-16.127-16.127-16.127h-63.606c-8.907 0-16.127 7.22-16.127 16.127v16.749z" fill="#fff3de"/><path d="m136.446 221.777v-16.749c0-8.907 7.22-16.127 16.127-16.127h-32.199c-8.907 0-16.127 7.22-16.127 16.127v16.749z" fill="#ffe5c2"/><g><path d="m445.903 137.828-20.376-5.46c-1.721-.461-3.489.56-3.95 2.281l-23.346 87.128h28.518l21.436-79.999c.46-1.72-.561-3.489-2.282-3.95z" fill="#a44f3e"/></g><g><path d="m412.459 221.777 23.228-86.686-10.16-2.722c-1.721-.461-3.489.56-3.95 2.281l-23.346 87.128h14.228z" fill="#883f2e"/></g><g><path d="m255.755 249.487c-8.074-7.548-18.912-12.176-30.837-12.176h-6.442l-7.568 27.546h14.01c9.721 0 17.63 7.909 17.63 17.629 0 9.721-7.909 17.629-17.63 17.629h-23.697l-7.568 27.546h31.265c20.564 0 37.907-13.745 43.373-32.546z" fill="#fd4755"/><g fill="#e41f2d"><path d="m193.177 429.088v-36.562l-6.571-1h-125.645l-6.616 1v36.562z"/><path d="m216.827 220.778h-186.133c-3.637 0-6.276 3.462-5.312 6.969l28.766 104.708c.131.475.197.966.197 1.459v26.659l6.679 1h125.519l6.634-1v-26.659c0-.493.066-.984.197-1.459l28.766-104.708c.963-3.508-1.676-6.969-5.313-6.969z"/></g><g><g><g fill="#c41926"><path d="m54.345 333.913v26.659h42.932v-26.659c0-.493-.066-.984-.197-1.459l-28.766-104.708c-.964-3.507 1.675-6.969 5.312-6.969h-42.932c-3.637 0-6.276 3.462-5.313 6.969l28.766 104.708c.132.475.198.966.198 1.459z"/><path d="m54.345 392.526h42.932v36.562h-42.932z"/></g><path d="m155.45 296.547-16.69-9.636 16.69-9.636c3.587-2.071 4.816-6.658 2.745-10.245-2.072-3.587-6.659-4.817-10.245-2.745l-16.689 9.636v-19.272c0-4.142-3.357-7.5-7.5-7.5s-7.5 3.358-7.5 7.5v19.272l-16.689-9.636c-3.59-2.073-8.175-.843-10.245 2.745-2.071 3.587-.842 8.174 2.745 10.245l16.69 9.636-16.69 9.636c-3.587 2.071-4.816 6.658-2.745 10.245 1.39 2.406 3.91 3.751 6.502 3.751 1.272 0 2.563-.324 3.743-1.006l16.689-9.636v19.272c0 4.142 3.357 7.5 7.5 7.5s7.5-3.358 7.5-7.5v-19.272l16.689 9.636c1.182.682 2.471 1.006 3.743 1.006 2.592 0 5.113-1.345 6.502-3.751 2.072-3.586.842-8.174-2.745-10.245z" fill="#fd4755"/><g><path d="m54.345 360.572h138.832v31.953h-138.832z" fill="#eef5f6"/></g><g><path d="m54.345 360.572h42.932v31.953h-42.932z" fill="#deecf1"/></g></g></g><g><path d="m448.281 237.31h-6.443l-7.568 27.546h14.01c9.721 0 17.63 7.909 17.63 17.629 0 9.721-7.909 17.629-17.63 17.629h-23.696l-7.568 27.546h31.264c24.95 0 45.176-20.226 45.176-45.175.001-24.949-20.225-45.175-45.175-45.175z" fill="#fd4755"/><g fill="#e41f2d"><path d="m440.191 220.778h-186.133c-3.637 0-6.276 3.462-5.312 6.969l28.766 104.708c.131.475.197.966.197 1.459v26.659l6.836 1h125.519l6.477-1v-26.659c0-.493.066-.984.197-1.459l28.766-104.708c.963-3.508-1.676-6.969-5.313-6.969z"/><path d="m416.54 429.088v-36.562l-6.415-1h-125.645l-6.772 1v36.562z"/></g><g><g><g fill="#c41926"><path d="m277.708 333.913v26.659h43.118v-26.659c0-.493-.066-.984-.197-1.459l-28.766-104.708c-.964-3.507 1.675-6.969 5.312-6.969h-43.118c-3.637 0-6.276 3.462-5.312 6.969l28.766 104.708c.131.475.197.966.197 1.459z"/><path d="m277.708 392.526h43.118v36.562h-43.118z"/></g><path d="m378.814 296.547-16.69-9.636 16.69-9.636c3.587-2.071 4.816-6.658 2.745-10.245s-6.66-4.817-10.245-2.745l-16.69 9.636v-19.272c0-4.142-3.357-7.5-7.5-7.5s-7.5 3.358-7.5 7.5v19.271l-16.689-9.636c-3.59-2.073-8.175-.842-10.245 2.745-2.071 3.587-.842 8.174 2.745 10.245l16.69 9.636-16.69 9.636c-3.587 2.071-4.816 6.658-2.745 10.245 1.389 2.406 3.91 3.751 6.502 3.751 1.272 0 2.563-.324 3.743-1.006l16.689-9.636v19.271c0 4.142 3.357 7.5 7.5 7.5s7.5-3.358 7.5-7.5v-19.272l16.69 9.636c1.182.682 2.471 1.006 3.743 1.006 2.592 0 5.113-1.346 6.502-3.751 2.072-3.585.842-8.172-2.745-10.243z" fill="#fd4755"/><g><path d="m277.708 360.572h138.832v31.953h-138.832z" fill="#eef5f6"/></g><g><path d="m277.708 360.572h43.118v31.953h-43.118z" fill="#deecf1"/></g></g></g></g></g><path d="m353.685 35.912h-43.723c-4.143 0-7.5 3.358-7.5 7.5s3.357 7.5 7.5 7.5h43.723c6.274 0 11.38 5.105 11.38 11.38s-5.105 11.38-11.38 11.38h-54.653c-14.546 0-26.38 11.834-26.38 26.38s11.834 26.38 26.38 26.38h24.647c6.383 0 11.575 5.192 11.575 11.575v16.993c0 4.142 3.357 7.5 7.5 7.5s7.5-3.358 7.5-7.5v-16.993c0-14.653-11.922-26.575-26.575-26.575h-24.647c-6.274 0-11.38-5.105-11.38-11.38s5.105-11.38 11.38-11.38h54.653c14.546 0 26.38-11.834 26.38-26.38s-11.835-26.38-26.38-26.38z" fill="#fed2a4"/><g><g><path d="m144.483 162.499c-4.143 0-7.5-3.358-7.5-7.5v-16.993c0-6.382-5.192-11.575-11.575-11.575h-24.646c-14.547 0-26.381-11.834-26.381-26.38s11.834-26.38 26.381-26.38h28.816c4.143 0 7.5 3.358 7.5 7.5s-3.357 7.5-7.5 7.5h-28.816c-6.275 0-11.381 5.105-11.381 11.38s5.105 11.38 11.381 11.38h24.646c14.653 0 26.575 11.921 26.575 26.575v16.993c0 4.143-3.357 7.5-7.5 7.5z" fill="#fed2a4"/></g></g></g><g><path d="m469.151 476.088h-426.302c-23.665 0-42.849-19.184-42.849-42.849 0-2.845 2.306-5.151 5.151-5.151h501.698c2.845 0 5.151 2.306 5.151 5.151 0 23.665-19.184 42.849-42.849 42.849z" fill="#7ca1b1"/></g><g><path d="m72.628 433.239c0-2.845 2.306-5.151 5.151-5.151h-72.628c-2.845 0-5.151 2.306-5.151 5.151 0 23.665 19.184 42.849 42.849 42.849h72.628c-23.665 0-42.849-19.184-42.849-42.849z" fill="#678d98"/></g></g></svg>