<svg id="Capa_1" enable-background="new 0 0 497 497" height="512" viewBox="0 0 497 497" width="512" xmlns="http://www.w3.org/2000/svg"><g><path d="m166.639 48.164c-4.358-5.943-11.918-8.559-19.004-6.532-12.075 3.455-32.5 7.574-58.465 6.252-13.272-.676-22.426 12.921-16.807 24.964 10.993 23.56 14.862 44.034 16.203 56.522.787 7.328 6.055 13.348 13.201 15.15 12.686 3.199 32.671 10.746 48.723 28.22l42.96 3.009 17.666-93.058c-22.229-8.3-36.74-23.977-44.477-34.527z" fill="#80dfb5"/><g><path d="m179.324 134.038c-23.116-26.326-60.1-40.685-60.471-40.827-3.869-1.481-5.804-5.817-4.323-9.685 1.48-3.869 5.819-5.804 9.685-4.323 1.656.634 40.843 15.856 66.38 44.938 2.733 3.112 2.425 7.851-.687 10.584s-7.851 2.425-10.584-.687z" fill="#b0ebce"/></g><path d="m311.711 48.164c4.358-5.943 11.918-8.559 19.004-6.532 12.075 3.455 32.5 7.574 58.465 6.252 13.272-.676 22.426 12.921 16.807 24.964-10.993 23.56-14.862 44.034-16.203 56.522-.787 7.328-6.055 13.348-13.201 15.15-12.686 3.199-32.671 10.746-48.723 28.22l-42.96 3.009-17.666-93.059c22.229-8.299 36.74-23.976 44.477-34.526z" fill="#80dfb5"/><g><path d="m288.442 134.725c-3.112-2.733-3.42-7.472-.687-10.584 25.537-29.082 64.724-44.304 66.38-44.938 3.868-1.481 8.205.455 9.685 4.323 1.481 3.868-.455 8.205-4.323 9.685-.602.233-37.502 14.669-60.471 40.827-2.728 3.107-7.466 3.424-10.584.687z" fill="#b0ebce"/></g><path d="m191.064 150.46c-52.695 0-95.413-42.718-95.413-95.413 0-2.337.088-4.654.253-6.95-2.206-.036-4.44-.097-6.734-.213-13.272-.676-22.426 12.921-16.807 24.964 10.993 23.56 14.862 44.034 16.203 56.522.787 7.328 6.055 13.348 13.201 15.15 12.686 3.2 32.671 10.746 48.723 28.219l42.96 3.009 4.852-25.56c-2.389.18-4.802.272-7.238.272z" fill="#36d39a"/><path d="m239.175 74.873c-29.943 0-54.216 24.273-54.216 54.216 0 22.81 18.491 41.302 41.302 41.302h25.828c22.81 0 41.302-18.491 41.302-41.302 0-29.942-24.273-54.216-54.216-54.216z" fill="#ff6f7f"/><path d="m218.607 113.323c0-14.397 5.056-27.609 13.481-37.973-26.591 3.474-47.129 26.2-47.129 53.74 0 22.81 18.491 41.302 41.302 41.302h25.828c2.075 0 4.113-.157 6.106-.453-23.098-8.434-39.588-30.599-39.588-56.616z" fill="#fc5c70"/><path d="m284.9 127.99c-29.943 0-54.216 24.273-54.216 54.216 0 22.81 18.491 41.302 41.302 41.302h25.828c22.81 0 41.302-18.491 41.302-41.302 0-29.943-24.273-54.216-54.216-54.216z" fill="#ff8997"/><path d="m264.332 166.44c0-14.397 5.056-27.609 13.481-37.973-26.591 3.474-47.129 26.2-47.129 53.74 0 22.81 18.491 41.302 41.302 41.302h25.828c2.075 0 4.113-.157 6.106-.453-23.098-8.434-39.588-30.599-39.588-56.616z" fill="#fc5c70"/><path d="m193.45 127.99c-29.943 0-54.216 24.273-54.216 54.216 0 22.81 18.491 41.302 41.302 41.302h25.828c22.81 0 41.302-18.491 41.302-41.302 0-29.943-24.273-54.216-54.216-54.216z" fill="#ff8997"/><path d="m.75 369.887s-.75-7.93-.75-11.95c0-10.27 1.62-20.61 4.91-30.62l92.064-53.669h177.746l34.577 49.759-17.2 76.159-72.834 35.935h-141.584z" fill="#de8957"/><path d="m172.883 166.44c0-14.397 5.056-27.609 13.481-37.973-26.591 3.474-47.129 26.2-47.129 53.74 0 22.81 18.491 41.302 41.302 41.302h25.828c2.075 0 4.113-.157 6.106-.453-23.098-8.434-39.588-30.599-39.588-56.616z" fill="#ff6f7f"/><path d="m38.04 251.438c27.69-37.069 71.749-60.069 119.849-60.069h181.228l-14.39 63.699-171.481 26.734h-108.894z" fill="#de8957"/><path d="m324.727 255.068-15.43 68.34-24.4 6.35-89.839-29.599-25.74 4.18c-7.19 1.17-14.31 2.74-21.31 4.71-7.01 1.97-13.9 4.33-20.65 7.08-27.58 11.22-57.369 15.93-87.059 13.77l-35.39-2.58 10.85-33.04c5.16-15.7 12.75-30.1 22.28-42.839l18.08 8.05c26.44 11.76 56.529 12.22 83.299 1.26 12.77-5.24 26.43-7.91 40.19-7.91 2.35 0 4.69.07 7.04.23l29.98 2h108.099z" fill="#d97c40"/><path d="m292.097 399.567-12.76 56.479h-181.228c-30.59 0-59.429-14.27-77.989-38.589-10.72-14.04-17.28-30.48-19.39-47.52l.02-.05c24.16-3.31 48.74 1.53 69.849 13.76l8.16 4.72c18.88 10.93 40.59 15.99 62.359 14.53l49.38-3.33z" fill="#d97c40"/><path d="m492.098 327.318-10.856-33.042c-20.173-61.402-77.496-102.906-142.126-102.906-64.631 0-121.954 41.505-142.126 102.906l-10.856 33.042c-10.092 30.718-4.4 64.436 15.216 90.14 18.559 24.318 47.398 38.587 77.989 38.587h119.555c30.591 0 59.43-14.269 77.989-38.587 19.615-25.704 25.307-59.422 15.215-90.14z" fill="#e3986d"/><path d="m443.735 343.206-10.855-33.041c-13.341-40.607-51.022-67.888-93.764-67.888-42.741 0-80.422 27.281-93.763 67.888l-10.856 33.041c-4.857 14.785-2.12 30.997 7.321 43.368 6.123 8.023 14.702 13.812 24.237 16.63l21.326-8.593 22.471 10.528h89.042c14.623 0 28.65-6.94 37.521-18.565 9.441-12.371 12.177-28.583 7.32-43.368z" fill="#ffedde"/><path d="m393.676 318.512c-13.941-9.924-30.379-15.168-47.537-15.168-45.241 0-82.048 36.807-82.048 82.049 0 6.016.671 11.988 1.963 17.811 4.281 1.265 8.753 1.935 13.284 1.935h30.513c-3.284-6.023-5.035-12.819-5.035-19.746 0-22.786 18.537-41.324 41.323-41.324 8.644 0 16.915 2.636 23.921 7.622 9.16 6.52 21.876 4.382 28.397-4.781 6.521-9.161 4.381-21.876-4.781-28.398z" fill="#edb798"/><path d="m101.984 202.204c-25.356 10.225-47.528 27.256-63.945 49.234l18.08 8.05c5.801 2.581 11.779 4.616 17.858 6.107 5.368-23.058 14.999-44.475 28.007-63.391z" fill="#d97c40"/><path d="m69.097 308.25c0-14.674 1.69-28.952 4.88-42.655-6.079-1.491-12.056-3.526-17.858-6.107l-18.08-8.05c-9.53 12.74-17.12 27.14-22.28 42.839l-10.85 33.04 35.39 2.58c9.883.719 19.775.66 29.595-.131-.524-7.106-.797-14.286-.797-21.516z" fill="#c76d33"/><path d="m69.894 329.767c-9.82.791-19.712.85-29.595.131l-35.39-2.58c-3.289 10.01-4.909 20.349-4.909 30.619 0 4.02.25 8.03.73 12l.02-.05c24.16-3.31 48.74 1.53 69.849 13.76l8.16 4.72c.827.479 1.667.932 2.505 1.389-6.026-18.858-9.828-39.096-11.37-59.989z" fill="#d97c40"/><path d="m81.264 389.756c-.838-.457-1.677-.91-2.505-1.389l-8.16-4.72c-21.11-12.23-45.69-17.07-69.849-13.76l-.02.05c2.11 17.04 8.67 33.48 19.39 47.52 18.56 24.32 47.4 38.589 77.989 38.589h18.993c-15.836-18.488-27.809-41.162-35.838-66.29z" fill="#c76d33"/></g></svg>